Coordinates
version=1
nRows=32
nColumns=12
inDegrees=yes

Units are S.I. units (second, meters, Newtons, ...)
Angles are in degrees

endheader
time	SC_y	SC_z	SC_x	AC_y	AC_z	AC_x	GH_y	GH_z	GH_yy	EL_x	PS_y
       0.0              -29.57         -3.585          58.74          54.74         -17.68          19.38         -162.3          26.88          168.6           38.9          132.5
   0.01733              -29.56         -3.582          58.74          54.74         -17.68          19.38         -162.3          26.89          168.6          38.91          132.5
   0.03465              -29.56         -3.579          58.74          54.74         -17.68          19.38         -162.3          26.89          168.5          38.92          132.4
   0.05198              -29.56         -3.577          58.75          54.74         -17.67          19.37         -162.3          26.89          168.5          38.93          132.4
   0.06931              -29.56         -3.574          58.75          54.74         -17.67          19.37         -162.3          26.89          168.5          38.94          132.4
   0.08664              -29.55          -3.57          58.75          54.74         -17.67          19.37         -162.3          26.89          168.5          38.95          132.4
     0.104              -29.55         -3.567          58.76          54.74         -17.67          19.37         -162.3           26.9          168.4          38.96          132.4
    0.1213              -29.55         -3.563          58.76          54.74         -17.66          19.36         -162.2           26.9          168.4          38.97          132.4
    0.1386              -29.54         -3.559          58.76          54.74         -17.66          19.36         -162.2           26.9          168.3          38.98          132.4
    0.1559              -29.54         -3.555          58.77          54.74         -17.66          19.36         -162.2           26.9          168.3           39.0          132.3
    0.1733              -29.53          -3.55          58.77          54.74         -17.65          19.35         -162.2           26.9          168.3          39.01          132.3
    0.1906              -29.53         -3.546          58.78          54.74         -17.65          19.35         -162.2          26.91          168.2          39.03          132.3
    0.2079              -29.52          -3.54          58.78          54.74         -17.65          19.34         -162.2          26.91          168.1          39.05          132.3
    0.2253              -29.52         -3.535          58.79          54.74         -17.64          19.34         -162.2          26.91          168.1          39.07          132.3
    0.2426              -29.51         -3.528           58.8          54.74         -17.64          19.33         -162.1          26.92          168.0          39.09          132.2
    0.2599              -29.51         -3.522           58.8          54.74         -17.63          19.33         -162.1          26.92          168.0          39.11          132.2
    0.2772               -29.5         -3.515          58.81          54.74         -17.63          19.32         -162.1          26.93          167.9          39.13          132.2
    0.2946              -29.49         -3.507          58.82          54.74         -17.62          19.32         -162.1          26.93          167.8          39.16          132.1
    0.3119              -29.48         -3.498          58.83          54.73         -17.62          19.31         -162.0          26.93          167.7          39.19          132.1
    0.3292              -29.47         -3.489          58.84          54.73         -17.61           19.3         -162.0          26.94          167.6          39.22          132.1
    0.3465              -29.46         -3.478          58.85          54.73          -17.6          19.29         -162.0          26.95          167.5          39.25          132.0
    0.3639              -29.45         -3.467          58.86          54.73         -17.59          19.28         -161.9          26.95          167.4          39.29          132.0
    0.3812              -29.44         -3.454          58.88          54.73         -17.58          19.27         -161.9          26.96          167.3          39.33          131.9
    0.3985              -29.43          -3.44          58.89          54.73         -17.57          19.26         -161.9          26.97          167.1          39.38          131.9
    0.4159              -29.41         -3.425          58.91          54.73         -17.56          19.25         -161.8          26.98          167.0          39.43          131.8
    0.4332               -29.4         -3.407          58.93          54.72         -17.55          19.24         -161.8          26.99          166.8          39.49          131.7
    0.4505              -29.38         -3.388          58.95          54.72         -17.54          19.22         -161.7           27.0          166.6          39.56          131.6
    0.4678              -29.36         -3.366          58.97          54.72         -17.52           19.2         -161.6          27.01          166.4          39.63          131.5
    0.4852              -29.33         -3.341           59.0          54.72          -17.5          19.18         -161.6          27.03          166.1          39.71          131.4
    0.5025              -29.31         -3.313          59.03          54.71         -17.48          19.16         -161.5          27.04          165.8           39.8          131.3
    0.5198              -29.28         -3.281          59.06          54.71         -17.46          19.13         -161.4          27.06          165.5          39.91          131.2
    0.5371              -29.24         -3.245           59.1          54.71         -17.43           19.1         -161.3          27.08          165.1          40.03          131.0
